HIERARCHY
ROOT SpineBase
{
  OFFSET 0.000000 0.000000 0.000000
  CHANNELS 6 Xposition Yposition Zposition Zrotation Xrotation Yrotation
  JOINT SpineMid
  {
    OFFSET 0.000000 27.150025 -0.000000
    CHANNELS 3 Zrotation Xrotation Yrotation
    JOINT SpineShoulder
    {
      OFFSET 0.143810 19.921117 -0.599282
      CHANNELS 3 Zrotation Xrotation Yrotation
      JOINT Neck
      {
        OFFSET 0.057248 6.514162 -0.488224
        CHANNELS 3 Zrotation Xrotation Yrotation
        JOINT Head
        {
          OFFSET 3.116713 11.823373 -2.938221
          CHANNELS 3 Zrotation Xrotation Yrotation
          End Site
          {
            OFFSET 0 0 0
          }
        }
      }
      JOINT ShoulderLeft
      {
        OFFSET -13.103450 -4.747047 -8.506558
        CHANNELS 3 Zrotation Xrotation Yrotation
        JOINT ElbowLeft
        {
          OFFSET -9.064488 -19.491252 -1.818755
          CHANNELS 3 Zrotation Xrotation Yrotation
          JOINT WristLeft
          {
            OFFSET 9.786198 -15.986480 -13.969732
            CHANNELS 3 Zrotation Xrotation Yrotation
            JOINT HandLeft
            {
              OFFSET 4.386203 -6.106869 -5.782085
              CHANNELS 3 Zrotation Xrotation Yrotation
              JOINT HandTipLeft
              {
                OFFSET 3.932424 -5.975995 -1.493678
                CHANNELS 3 Zrotation Xrotation Yrotation
                End Site
                {
                  OFFSET 0 0 0
                }
              }
              JOINT ThumbLeft
              {
                OFFSET -0.229607 2.772257 -5.418622
                CHANNELS 3 Zrotation Xrotation Yrotation
                End Site
                {
                  OFFSET 0 0 0
                }
              }
            }
          }
        }
      }
      JOINT ShoulderRight
      {
        OFFSET 14.538588 -2.263847 6.387771
        CHANNELS 3 Zrotation Xrotation Yrotation
        JOINT ElbowRight
        {
          OFFSET 11.306403 -20.598324 8.589268
          CHANNELS 3 Zrotation Xrotation Yrotation
          JOINT WristRight
          {
            OFFSET 13.463627 -16.657423 -9.135518
            CHANNELS 3 Zrotation Xrotation Yrotation
            JOINT HandRight
            {
              OFFSET 2.142964 -3.179047 -2.051272
              CHANNELS 3 Zrotation Xrotation Yrotation
              JOINT HandTipRight
              {
                OFFSET 2.263152 -6.349017 -4.027544
                CHANNELS 3 Zrotation Xrotation Yrotation
                End Site
                {
                  OFFSET 0 0 0
                }
              }
              JOINT ThumbRight
              {
                OFFSET 1.802757 4.168953 -4.621342
                CHANNELS 3 Zrotation Xrotation Yrotation
                End Site
                {
                  OFFSET 0 0 0
                }
              }
            }
          }
        }
      }
    }
  }
  JOINT HipLeft
  {
    OFFSET -5.972703 -0.073681 -5.461719
    CHANNELS 3 Zrotation Xrotation Yrotation
    JOINT KneeLeft
    {
      OFFSET 18.686522 -8.690183 -25.822820
      CHANNELS 3 Zrotation Xrotation Yrotation
      JOINT AnkleLeft
      {
        OFFSET 0.511519 -37.593901 8.840492
        CHANNELS 3 Zrotation Xrotation Yrotation
        JOINT FootLeft
        {
          OFFSET 4.059782 -7.637932 -9.254650
          CHANNELS 3 Zrotation Xrotation Yrotation
          End Site
          {
            OFFSET 0 0 0
          }
        }
      }
    }
  }
  JOINT HipRight
  {
    OFFSET 6.201598 -0.604008 -1.216992
    CHANNELS 3 Zrotation Xrotation Yrotation
    JOINT KneeRight
    {
      OFFSET 27.988282 -7.160820 -18.389849
      CHANNELS 3 Zrotation Xrotation Yrotation
      JOINT AnkleRight
      {
        OFFSET -2.620207 -33.537675 9.857359
        CHANNELS 3 Zrotation Xrotation Yrotation
        JOINT FootRight
        {
          OFFSET 3.885101 -7.681673 -8.831843
          CHANNELS 3 Zrotation Xrotation Yrotation
          End Site
          {
            OFFSET 0 0 0
          }
        }
      }
    }
  }
}
MOTION
Frames: 7
Frame Time: 0.033333
5.372562 58.235287 390.108017 -17.591423 -41.491668 9.848245 0.427615 -0.252904 -16.874144 0.472283 0.657165 -0.634410 -3.939248 38.294639 4.391503 0.000000 0.000000 0.000000 -12.530461 -6.804413 28.314058 -23.183287 -9.264796 -14.868350 -4.519505 -3.256293 9.026634 45.037375 41.985260 -27.495593 0.000000 0.000000 0.000000 0.000000 0.000000 0.000000 10.271083 11.732207 -19.014603 -36.009498 -24.985057 0.028853 1.907166 -2.582482 15.319711 15.386078 -2.994159 -5.284306 0.000000 0.000000 0.000000 0.000000 0.000000 0.000000 -2.860756 12.417740 0.035369 16.231810 12.279535 -16.874780 -1.252456 9.452559 12.018199 0.000000 0.000000 0.000000 -19.005813 21.708160 -16.253320 15.856626 5.732922 6.551573 0.691065 -6.649287 20.128866 0.000000 0.000000 0.000000
6.964383 60.599644 387.070402 -16.105994 -40.583828 5.710640 0.318720 -0.291914 -11.958600 0.425361 0.681488 -0.576492 -4.550135 38.532067 4.234224 0.000000 0.000000 0.000000 -7.140699 -7.312713 26.292572 -30.632427 -9.976027 -8.712143 -4.806362 -3.773792 7.453682 34.413574 40.742532 -23.932010 0.000000 0.000000 0.000000 0.000000 0.000000 0.000000 6.173665 11.900647 -18.255331 -30.854599 -24.419218 -1.509774 -1.688629 -7.453096 17.351254 18.254515 -2.843006 -9.264158 0.000000 0.000000 0.000000 0.000000 0.000000 0.000000 -12.603462 2.095670 2.965854 24.220497 22.988421 -16.874999 -0.121119 9.923804 11.922571 0.000000 0.000000 0.000000 -31.612196 14.987671 -12.409102 27.135455 14.440081 7.826479 -3.184593 -5.066106 22.143762 0.000000 0.000000 0.000000
8.436451 63.127252 383.742798 -14.867332 -39.369290 0.914685 0.391043 -0.280342 -6.511513 0.357838 0.592248 -0.525741 -4.551812 38.332902 3.793556 0.000000 0.000000 0.000000 -5.387344 -8.146168 25.388635 -34.292004 -11.257897 -6.976557 -3.886797 -2.784231 7.686699 17.351000 38.527857 -14.008978 0.000000 0.000000 0.000000 0.000000 0.000000 0.000000 1.941917 11.815408 -17.559882 -25.973002 -24.235364 -2.963317 -4.528710 -11.041097 21.117394 19.085294 -4.114840 -12.454127 0.000000 0.000000 0.000000 0.000000 0.000000 0.000000 -20.121674 -8.785479 4.341373 32.238010 32.601072 -17.776106 0.610758 8.738538 10.932290 0.000000 0.000000 0.000000 -42.395936 6.615540 -10.739779 39.309866 23.004756 7.092549 -8.065743 -3.705043 24.015084 0.000000 0.000000 0.000000
9.896533 65.690177 380.268673 -13.550538 -38.041069 -3.286134 0.429239 -0.156223 -1.625139 0.322537 0.401710 -0.490829 -4.762969 38.212460 3.385459 0.000000 0.000000 0.000000 -0.361293 -6.455653 22.474858 -41.517506 -15.028954 -5.011577 -3.064984 -1.904120 8.121600 5.839244 34.381567 -10.617774 0.000000 0.000000 0.000000 0.000000 0.000000 0.000000 -2.080363 11.724306 -16.844174 -22.517507 -24.789728 -4.071825 -4.343536 -12.158843 18.815367 17.777451 -4.600659 -10.412338 0.000000 0.000000 0.000000 0.000000 0.000000 0.000000 -26.632996 -19.732513 3.723611 41.028092 41.271978 -20.194866 1.471252 4.564842 7.738451 0.000000 0.000000 0.000000 -50.856644 -2.098833 -9.925244 52.063170 27.879918 2.686564 -13.913507 0.104302 27.806569 0.000000 0.000000 0.000000
10.913029 67.801283 377.236441 -12.645030 -36.457132 -9.280202 0.509315 -0.169143 4.870517 0.334175 0.436636 -0.460099 -3.714225 36.667115 2.613357 0.000000 0.000000 0.000000 1.504598 -5.889355 20.800563 -43.701832 -16.546958 -6.421566 -3.864012 -3.032656 9.874313 -1.176510 31.874292 -7.574286 0.000000 0.000000 0.000000 0.000000 0.000000 0.000000 -5.049218 10.830196 -16.596070 -20.830315 -25.820647 -4.880784 -2.293187 -10.817985 14.761539 15.148839 -8.088382 -9.496905 0.000000 0.000000 0.000000 0.000000 0.000000 0.000000 -30.585399 -30.084670 3.511602 48.127158 48.189536 -22.304993 1.450798 -5.021347 2.774901 0.000000 0.000000 0.000000 -55.733818 -11.659906 -8.051598 60.854661 30.539905 -2.165596 -16.207378 -0.483911 26.694416 0.000000 0.000000 0.000000
11.720260 69.640317 374.658541 -11.893615 -34.998990 -14.919129 0.575039 -0.174926 10.923214 0.341689 0.564330 -0.426665 -3.068904 35.001825 2.103602 0.000000 0.000000 0.000000 3.064404 -5.071993 19.146573 -44.766534 -17.622474 -8.600072 -4.170204 -3.125441 9.516228 -6.008673 29.517562 -2.822774 0.000000 0.000000 0.000000 0.000000 0.000000 0.000000 -7.433255 9.800469 -16.566408 -19.482178 -26.133360 -4.279029 -1.916306 -11.949867 10.592815 14.610990 -8.298310 -7.459265 0.000000 0.000000 0.000000 0.000000 0.000000 0.000000 -32.864519 -38.892892 3.114970 54.415738 53.301236 -24.633082 -0.174006 -20.754478 -7.910675 0.000000 0.000000 0.000000 -58.344118 -20.407103 -5.891586 67.502982 29.850354 -6.771999 -18.646784 -0.462640 26.829059 0.000000 0.000000 0.000000
12.338709 70.690973 372.546243 -11.104605 -33.279480 -19.292327 0.597499 -0.408952 15.741901 0.340749 0.634341 -0.399431 -2.208137 32.632807 1.691580 0.000000 0.000000 0.000000 2.764955 -4.303754 18.078115 -43.349210 -18.026089 -12.337954 -2.435201 0.042476 7.754430 -12.603183 23.232796 1.145431 0.000000 0.000000 0.000000 0.000000 0.000000 0.000000 -9.112579 8.708733 -16.632364 -18.892639 -26.336699 -3.230431 -0.807151 -10.194568 10.085969 13.349606 -11.608673 -10.360945 0.000000 0.000000 0.000000 0.000000 0.000000 0.000000 -33.887175 -45.992654 2.980583 58.957491 55.805908 -26.824873 -1.046240 -25.355201 -12.781602 0.000000 0.000000 0.000000 -59.215718 -27.157055 -4.261418 70.275195 27.543147 -9.283112 -19.328279 -5.025577 23.284472 0.000000 0.000000 0.000000
